# xmcd
# 
# Track frame offsets:
#     150
#     15757
#     30150
#     42465
#     55010
#     68420
#     81655
#     92352
#     102920
#     122065
#     141087
#     165767
#     177320
#     189217
# 
# Disc length: 2650
# 
# Revision: 2
# Processed by: cddbd v1.5.2PL0 Copyright (c) Steve Scherf et al.
# Submitted via: fre:ac v1.0.31
# 
DISCID=9b0a580e
DTITLE=Roots of Rhythm - Soul Picnic
DYEAR=2000
DGENRE=R&B
TTITLE0=The 5th Dimension/Stoned Soul Picnic
TTITLE1=The JB's/Pass the Peas
TTITLE2=Sly and the Family Stone/Hot Fun in the Summertime
TTITLE3=King Curtis/Soul Twist
TTITLE4=Brother Jack McDuff/Hot Barbecue
TTITLE5=Shorty Long/Function at the Junction
TTITLE6=Major Lance/Rhythm
TTITLE7=Gene Chandler/Good Times
TTITLE8=The Blackbyrds/Walking in Rhythm
TTITLE9=Bill Withers/Lovely Day
TTITLE10=Herbie Hancock/Cantaloupe Island
TTITLE11=Chris Powell and the Five Blue Flames/Hot Dog
TTITLE12=Doc Bagby/Dumplin's
TTITLE13=Bobby Womack/Fly Me to the Moon
EXTD=YEAR: 2000
EXTT0=
EXTT1=
EXTT2=
EXTT3=
EXTT4=
EXTT5=
EXTT6=
EXTT7=
EXTT8=
EXTT9=
EXTT10=
EXTT11=
EXTT12=
EXTT13=
PLAYORDER=
